<svg xmlns="http://www.w3.org/2000/svg" viewBox="0 0 140 34.6"><path class="d" d="M44.19 26.48c-.07.32-.14.64-.14.88 0 .81.57 1.24 1.95 1.49v.46h-5.69v-.46c1.31-.25 2.05-.95 2.55-2.37l6.86-20.97h3.54l6.76 20.97c.42 1.42 1.06 2.16 1.91 2.37v.46H54.5v-.46c.81-.21 1.2-.64 1.17-1.31 0-.28-.11-.64-.21-1.06L53.9 21.7h-8.14l-1.56 4.78Zm9.27-6.05L49.85 9.32l-3.64 11.11h7.25ZM63.25 7.09c2.19-.71 2.51-.85 4.35-1.98h.67v21.72c0 1.24.18 1.63.99 2.02v.46h-6.01v-.46c.78-.42.96-.78.96-2.02V9.36c0-1.1-.18-1.41-.96-1.59V7.1ZM70.85 7.09c2.19-.71 2.51-.85 4.35-1.98h.67v21.72c0 1.24.18 1.63.99 2.02v.46h-6.01v-.46c.78-.42.96-.78.96-2.02V9.36c0-1.1-.18-1.41-.96-1.59V7.1ZM88.47 26.58c-2.9 2.23-4.63 3.08-6.3 3.08-1.8 0-2.76-1.13-2.76-3.22v-9.62c0-1.06-.21-1.42-.96-1.59v-.67c2.19-.67 2.51-.81 4.35-1.98h.67v13.19c0 1.03.5 1.7 1.27 1.7.88 0 2.02-.6 3.71-1.91v-8.74c0-1.06-.21-1.42-.96-1.59v-.67c2.19-.67 2.51-.81 4.35-1.98h.67v14.29c0 1.2.18 1.59.95 1.98v.46h-5.02v-2.72ZM100.17 29.31l-4.53-13.72c-.39-1.2-.78-1.63-1.7-1.91v-.46h6.58v.46c-.71.21-.99.5-.99.95 0 .25.07.6.18.96l3.61 10.93 3.36-10.93c.11-.28.14-.57.14-.78 0-.6-.42-.88-1.66-1.13v-.46h4.78v.46c-1.27.28-1.73.71-2.16 2.02l-4.28 13.62h-3.33ZM110.04 14.56c2.23-.67 2.55-.81 4.39-1.98h.67v14.29c0 1.2.18 1.59.96 1.98v.46h-5.98v-.46c.78-.39.96-.78.96-1.98V16.82c0-1.1-.21-1.45-.99-1.59v-.67Zm5.13-7.25c0 1.13-.96 1.87-2.44 1.87s-2.41-.78-2.41-1.95c0-1.06.99-1.8 2.44-1.8s2.41.74 2.41 1.87ZM132.96 28.32c-1.13 1.03-1.84 1.34-3.01 1.34-1.63 0-2.58-.78-2.79-2.33-1.13.85-1.27.96-1.73 1.24-1.06.71-2.33 1.1-3.5 1.1-2.44 0-4.14-1.52-4.14-3.61 0-1.66 1.1-3.08 3.29-4.24 1.42-.78 3.18-1.56 6.08-2.72v-3.57c0-1.2-.71-1.95-1.87-1.95-.57 0-1.2.25-1.49.57q-.18.21-.64 1.38c-.57 1.42-1.24 2.02-2.23 2.02s-1.7-.67-1.7-1.49c0-1.95 2.76-3.36 6.47-3.36s5.48 1.34 5.48 3.78v10.75c0 .71.18 1.03.6 1.03.25 0 .42-.11.64-.42l.53.5Zm-5.8-8.24c-4.32 1.73-5.45 2.83-5.45 5.09 0 1.59.85 2.65 2.05 2.65.88 0 1.73-.35 3.4-1.45v-6.3ZM133.99 7.09c2.19-.71 2.51-.85 4.35-1.98h.67v21.72c0 1.24.18 1.63.99 2.02v.46h-6.01v-.46c.78-.42.96-.78.96-2.02V9.36c0-1.1-.18-1.41-.96-1.59V7.1Z"/><g><path class="d" d="m18.59 0-.37.37c-1.45 2.32-4.15 6.83-4.85 9.39-.97 3.55 5.28 4.72 7.12 5.74 2.55 1.41 4.43 3.57 5.27 5.79h10.96c.25-.83.45-1.68.59-2.55L18.59 0Z"/><path class="d" d="M13.5 17.14c-3.1-1.16-3.71-3.32-3.22-5.3.41-1.66 2.49-5.13 4.04-7.57L0 18.56c.14.93.35 1.84.62 2.72h17.17c.18-2.07-2.35-3.42-4.29-4.14ZM1.66 23.92c.46.95 1 1.85 1.6 2.7H34.1c.52-.74.99-1.52 1.41-2.33.06-.12.13-.25.19-.37H1.66ZM21.52 29.26h-16c.21.21.43.41.66.61a18.825 18.825 0 0 0 7.24 3.98c1.67.48 3.43.75 5.25.75 1.06 0 2.09-.09 3.1-.26.73-.12 1.45-.29 2.15-.49a18.69 18.69 0 0 0 5.18-2.4c.97-.65 1.88-1.38 2.72-2.19H21.51Z"/></g></svg>